<mxfile host="app.diagrams.net" modified="2023-08-21T13:42:35.101Z" agent="Mozilla/5.0 (Windows NT 10.0; Win64; x64) AppleWebKit/537.36 (KHTML, like Gecko) Chrome/115.0.0.0 Safari/537.36" version="21.6.5" etag="6mo4pIbRHyWTuAU_3aVR" type="github">
  <diagram name="Page-1" id="IDvd6nY-eU1gkTfjyFGW">
    <mxGraphModel>
      <root>
        <mxCell id="0" />
        <mxCell id="1" parent="0" />
      </root>
    </mxGraphModel>
  </diagram>
</mxfile>
